<mxfile host="Electron" agent="Mozilla/5.0 (Windows NT 10.0; Win64; x64) AppleWebKit/537.36 (KHTML, like Gecko) draw.io/24.7.17 Chrome/128.0.6613.36 Electron/32.0.1 Safari/537.36" version="24.7.17">
  <diagram name="Page-1" id="_KmOjz5QVVpOA-zQAkHJ">
    <mxGraphModel dx="2390" dy="1407" grid="1" gridSize="10" guides="1" tooltips="1" connect="1" arrows="1" fold="1" page="1" pageScale="1" pageWidth="850" pageHeight="1100" math="0" shadow="0">
      <root>
        <mxCell id="0" />
        <mxCell id="1" parent="0" />
        <mxCell id="4W97whUe7uIt-eXvdTxb-7" style="edgeStyle=orthogonalEdgeStyle;rounded=0;orthogonalLoop=1;jettySize=auto;html=1;" parent="1" source="4W97whUe7uIt-eXvdTxb-1" target="4W97whUe7uIt-eXvdTxb-2" edge="1">
          <mxGeometry relative="1" as="geometry" />
        </mxCell>
        <mxCell id="4W97whUe7uIt-eXvdTxb-1" value="Start" style="ellipse;whiteSpace=wrap;html=1;" parent="1" vertex="1">
          <mxGeometry x="360" y="280" width="120" height="80" as="geometry" />
        </mxCell>
        <mxCell id="4W97whUe7uIt-eXvdTxb-4" value="yes" style="edgeStyle=orthogonalEdgeStyle;rounded=0;orthogonalLoop=1;jettySize=auto;html=1;entryX=0.5;entryY=0;entryDx=0;entryDy=0;" parent="1" source="4W97whUe7uIt-eXvdTxb-2" target="4W97whUe7uIt-eXvdTxb-3" edge="1">
          <mxGeometry relative="1" as="geometry" />
        </mxCell>
        <mxCell id="4W97whUe7uIt-eXvdTxb-6" value="no" style="edgeStyle=orthogonalEdgeStyle;rounded=0;orthogonalLoop=1;jettySize=auto;html=1;entryX=0.5;entryY=0;entryDx=0;entryDy=0;" parent="1" source="4W97whUe7uIt-eXvdTxb-2" target="4W97whUe7uIt-eXvdTxb-5" edge="1">
          <mxGeometry relative="1" as="geometry" />
        </mxCell>
        <mxCell id="4W97whUe7uIt-eXvdTxb-2" value="New Student?" style="rhombus;whiteSpace=wrap;html=1;" parent="1" vertex="1">
          <mxGeometry x="380" y="450" width="80" height="80" as="geometry" />
        </mxCell>
        <mxCell id="4W97whUe7uIt-eXvdTxb-8" style="edgeStyle=orthogonalEdgeStyle;rounded=0;orthogonalLoop=1;jettySize=auto;html=1;" parent="1" source="4W97whUe7uIt-eXvdTxb-3" target="4W97whUe7uIt-eXvdTxb-5" edge="1">
          <mxGeometry relative="1" as="geometry" />
        </mxCell>
        <mxCell id="4W97whUe7uIt-eXvdTxb-3" value="Register Account" style="rounded=0;whiteSpace=wrap;html=1;" parent="1" vertex="1">
          <mxGeometry x="230" y="610" width="120" height="60" as="geometry" />
        </mxCell>
        <mxCell id="4W97whUe7uIt-eXvdTxb-10" style="edgeStyle=orthogonalEdgeStyle;rounded=0;orthogonalLoop=1;jettySize=auto;html=1;entryX=0.5;entryY=0;entryDx=0;entryDy=0;" parent="1" source="4W97whUe7uIt-eXvdTxb-5" target="4W97whUe7uIt-eXvdTxb-9" edge="1">
          <mxGeometry relative="1" as="geometry" />
        </mxCell>
        <mxCell id="4W97whUe7uIt-eXvdTxb-5" value="Login" style="rounded=0;whiteSpace=wrap;html=1;" parent="1" vertex="1">
          <mxGeometry x="500" y="610" width="120" height="60" as="geometry" />
        </mxCell>
        <mxCell id="4W97whUe7uIt-eXvdTxb-12" value="yes" style="edgeStyle=orthogonalEdgeStyle;rounded=0;orthogonalLoop=1;jettySize=auto;html=1;entryX=0.5;entryY=0;entryDx=0;entryDy=0;" parent="1" source="4W97whUe7uIt-eXvdTxb-9" target="4W97whUe7uIt-eXvdTxb-11" edge="1">
          <mxGeometry relative="1" as="geometry">
            <mxPoint x="440" y="900" as="targetPoint" />
          </mxGeometry>
        </mxCell>
        <mxCell id="4W97whUe7uIt-eXvdTxb-13" value="no" style="edgeStyle=orthogonalEdgeStyle;rounded=0;orthogonalLoop=1;jettySize=auto;html=1;entryX=0.5;entryY=0;entryDx=0;entryDy=0;" parent="1" source="4W97whUe7uIt-eXvdTxb-9" target="4W97whUe7uIt-eXvdTxb-14" edge="1">
          <mxGeometry relative="1" as="geometry">
            <mxPoint x="680" y="900" as="targetPoint" />
          </mxGeometry>
        </mxCell>
        <mxCell id="4W97whUe7uIt-eXvdTxb-9" value="Is Pending Approval?" style="rhombus;whiteSpace=wrap;html=1;" parent="1" vertex="1">
          <mxGeometry x="520" y="770" width="80" height="80" as="geometry" />
        </mxCell>
        <mxCell id="4W97whUe7uIt-eXvdTxb-16" style="edgeStyle=orthogonalEdgeStyle;rounded=0;orthogonalLoop=1;jettySize=auto;html=1;entryX=0;entryY=0.5;entryDx=0;entryDy=0;" parent="1" source="4W97whUe7uIt-eXvdTxb-11" target="4W97whUe7uIt-eXvdTxb-15" edge="1">
          <mxGeometry relative="1" as="geometry" />
        </mxCell>
        <mxCell id="4W97whUe7uIt-eXvdTxb-11" value="Wait Admin Approval" style="rounded=0;whiteSpace=wrap;html=1;" parent="1" vertex="1">
          <mxGeometry x="390" y="920" width="120" height="60" as="geometry" />
        </mxCell>
        <mxCell id="4W97whUe7uIt-eXvdTxb-17" style="edgeStyle=orthogonalEdgeStyle;rounded=0;orthogonalLoop=1;jettySize=auto;html=1;entryX=1;entryY=0.5;entryDx=0;entryDy=0;" parent="1" source="4W97whUe7uIt-eXvdTxb-14" target="4W97whUe7uIt-eXvdTxb-15" edge="1">
          <mxGeometry relative="1" as="geometry" />
        </mxCell>
        <mxCell id="4W97whUe7uIt-eXvdTxb-14" value="Dashboard" style="rounded=0;whiteSpace=wrap;html=1;" parent="1" vertex="1">
          <mxGeometry x="620" y="920" width="120" height="60" as="geometry" />
        </mxCell>
        <mxCell id="4W97whUe7uIt-eXvdTxb-15" value="End" style="ellipse;whiteSpace=wrap;html=1;" parent="1" vertex="1">
          <mxGeometry x="500" y="1060" width="120" height="80" as="geometry" />
        </mxCell>
        <mxCell id="4W97whUe7uIt-eXvdTxb-18" value="&lt;font style=&quot;font-size: 24px;&quot;&gt;LOGIN PROCESS&lt;/font&gt;" style="text;html=1;align=center;verticalAlign=middle;resizable=0;points=[];autosize=1;strokeColor=none;fillColor=none;" parent="1" vertex="1">
          <mxGeometry x="315" y="210" width="220" height="40" as="geometry" />
        </mxCell>
        <mxCell id="CCLTXfH-N6ZrhghRH6qy-23" value="&lt;font style=&quot;font-size: 24px;&quot;&gt;ENROLLMENT PROCESS&lt;/font&gt;" style="text;html=1;align=center;verticalAlign=middle;resizable=0;points=[];autosize=1;strokeColor=none;fillColor=none;" vertex="1" parent="1">
          <mxGeometry x="1380" y="185" width="310" height="40" as="geometry" />
        </mxCell>
        <mxCell id="CCLTXfH-N6ZrhghRH6qy-67" value="" style="edgeStyle=orthogonalEdgeStyle;rounded=0;orthogonalLoop=1;jettySize=auto;html=1;" edge="1" parent="1" source="CCLTXfH-N6ZrhghRH6qy-68" target="CCLTXfH-N6ZrhghRH6qy-71">
          <mxGeometry relative="1" as="geometry" />
        </mxCell>
        <mxCell id="CCLTXfH-N6ZrhghRH6qy-68" value="Start" style="ellipse;whiteSpace=wrap;html=1;" vertex="1" parent="1">
          <mxGeometry x="1195" y="360" width="120" height="80" as="geometry" />
        </mxCell>
        <mxCell id="CCLTXfH-N6ZrhghRH6qy-69" value="no" style="edgeStyle=orthogonalEdgeStyle;rounded=0;orthogonalLoop=1;jettySize=auto;html=1;" edge="1" parent="1" source="CCLTXfH-N6ZrhghRH6qy-71" target="CCLTXfH-N6ZrhghRH6qy-73">
          <mxGeometry relative="1" as="geometry" />
        </mxCell>
        <mxCell id="CCLTXfH-N6ZrhghRH6qy-70" value="yes" style="edgeStyle=orthogonalEdgeStyle;rounded=0;orthogonalLoop=1;jettySize=auto;html=1;" edge="1" parent="1" source="CCLTXfH-N6ZrhghRH6qy-71" target="CCLTXfH-N6ZrhghRH6qy-75">
          <mxGeometry relative="1" as="geometry" />
        </mxCell>
        <mxCell id="CCLTXfH-N6ZrhghRH6qy-71" value="Has account?" style="rhombus;whiteSpace=wrap;html=1;" vertex="1" parent="1">
          <mxGeometry x="1215" y="520" width="80" height="80" as="geometry" />
        </mxCell>
        <mxCell id="CCLTXfH-N6ZrhghRH6qy-72" value="" style="edgeStyle=orthogonalEdgeStyle;rounded=0;orthogonalLoop=1;jettySize=auto;html=1;" edge="1" parent="1" source="CCLTXfH-N6ZrhghRH6qy-73" target="CCLTXfH-N6ZrhghRH6qy-77">
          <mxGeometry relative="1" as="geometry" />
        </mxCell>
        <mxCell id="CCLTXfH-N6ZrhghRH6qy-73" value="Register Student" style="whiteSpace=wrap;html=1;" vertex="1" parent="1">
          <mxGeometry x="985" y="530" width="120" height="60" as="geometry" />
        </mxCell>
        <mxCell id="CCLTXfH-N6ZrhghRH6qy-74" value="" style="edgeStyle=orthogonalEdgeStyle;rounded=0;orthogonalLoop=1;jettySize=auto;html=1;entryX=0.5;entryY=0;entryDx=0;entryDy=0;" edge="1" parent="1" source="CCLTXfH-N6ZrhghRH6qy-75" target="CCLTXfH-N6ZrhghRH6qy-79">
          <mxGeometry relative="1" as="geometry">
            <Array as="points">
              <mxPoint x="1565" y="560" />
              <mxPoint x="1565" y="740" />
              <mxPoint x="1255" y="740" />
            </Array>
          </mxGeometry>
        </mxCell>
        <mxCell id="CCLTXfH-N6ZrhghRH6qy-75" value="Encode Grade 10 Grades by Admin/Instructor" style="whiteSpace=wrap;html=1;" vertex="1" parent="1">
          <mxGeometry x="1395" y="530" width="120" height="60" as="geometry" />
        </mxCell>
        <mxCell id="CCLTXfH-N6ZrhghRH6qy-76" style="edgeStyle=orthogonalEdgeStyle;rounded=0;orthogonalLoop=1;jettySize=auto;html=1;entryX=0.5;entryY=1;entryDx=0;entryDy=0;" edge="1" parent="1" source="CCLTXfH-N6ZrhghRH6qy-77" target="CCLTXfH-N6ZrhghRH6qy-75">
          <mxGeometry relative="1" as="geometry" />
        </mxCell>
        <mxCell id="CCLTXfH-N6ZrhghRH6qy-77" value="Approve Account by Admin/Instructor" style="whiteSpace=wrap;html=1;" vertex="1" parent="1">
          <mxGeometry x="985" y="670" width="120" height="60" as="geometry" />
        </mxCell>
        <mxCell id="CCLTXfH-N6ZrhghRH6qy-78" value="" style="edgeStyle=orthogonalEdgeStyle;rounded=0;orthogonalLoop=1;jettySize=auto;html=1;" edge="1" parent="1" source="CCLTXfH-N6ZrhghRH6qy-79" target="CCLTXfH-N6ZrhghRH6qy-86">
          <mxGeometry relative="1" as="geometry" />
        </mxCell>
        <mxCell id="CCLTXfH-N6ZrhghRH6qy-79" value="Verify Student Grades" style="whiteSpace=wrap;html=1;" vertex="1" parent="1">
          <mxGeometry x="1195" y="780" width="120" height="60" as="geometry" />
        </mxCell>
        <mxCell id="CCLTXfH-N6ZrhghRH6qy-80" value="" style="edgeStyle=orthogonalEdgeStyle;rounded=0;orthogonalLoop=1;jettySize=auto;html=1;" edge="1" parent="1" source="CCLTXfH-N6ZrhghRH6qy-81" target="CCLTXfH-N6ZrhghRH6qy-83">
          <mxGeometry relative="1" as="geometry" />
        </mxCell>
        <mxCell id="CCLTXfH-N6ZrhghRH6qy-81" value="Enroll Student" style="whiteSpace=wrap;html=1;" vertex="1" parent="1">
          <mxGeometry x="1195" y="1070" width="120" height="60" as="geometry" />
        </mxCell>
        <mxCell id="CCLTXfH-N6ZrhghRH6qy-82" style="edgeStyle=orthogonalEdgeStyle;rounded=0;orthogonalLoop=1;jettySize=auto;html=1;entryX=0.5;entryY=0;entryDx=0;entryDy=0;" edge="1" parent="1" source="CCLTXfH-N6ZrhghRH6qy-83" target="CCLTXfH-N6ZrhghRH6qy-90">
          <mxGeometry relative="1" as="geometry" />
        </mxCell>
        <mxCell id="CCLTXfH-N6ZrhghRH6qy-83" value="Select Year/Section/Schedule by Admin/Instructor" style="whiteSpace=wrap;html=1;" vertex="1" parent="1">
          <mxGeometry x="1195" y="1190" width="120" height="60" as="geometry" />
        </mxCell>
        <mxCell id="CCLTXfH-N6ZrhghRH6qy-84" value="no" style="edgeStyle=orthogonalEdgeStyle;rounded=0;orthogonalLoop=1;jettySize=auto;html=1;" edge="1" parent="1" source="CCLTXfH-N6ZrhghRH6qy-86" target="CCLTXfH-N6ZrhghRH6qy-87">
          <mxGeometry relative="1" as="geometry" />
        </mxCell>
        <mxCell id="CCLTXfH-N6ZrhghRH6qy-85" value="yes" style="edgeStyle=orthogonalEdgeStyle;rounded=0;orthogonalLoop=1;jettySize=auto;html=1;entryX=0.5;entryY=0;entryDx=0;entryDy=0;" edge="1" parent="1" source="CCLTXfH-N6ZrhghRH6qy-86" target="CCLTXfH-N6ZrhghRH6qy-81">
          <mxGeometry relative="1" as="geometry">
            <mxPoint x="1255" y="1090" as="targetPoint" />
          </mxGeometry>
        </mxCell>
        <mxCell id="CCLTXfH-N6ZrhghRH6qy-86" value="Qualified for G11?" style="rhombus;whiteSpace=wrap;html=1;" vertex="1" parent="1">
          <mxGeometry x="1215" y="910" width="80" height="80" as="geometry" />
        </mxCell>
        <mxCell id="CCLTXfH-N6ZrhghRH6qy-87" value="For Next Sem" style="whiteSpace=wrap;html=1;" vertex="1" parent="1">
          <mxGeometry x="985" y="920" width="120" height="60" as="geometry" />
        </mxCell>
        <mxCell id="CCLTXfH-N6ZrhghRH6qy-88" value="no" style="edgeStyle=orthogonalEdgeStyle;rounded=0;orthogonalLoop=1;jettySize=auto;html=1;entryX=0;entryY=0.5;entryDx=0;entryDy=0;exitX=0;exitY=0.5;exitDx=0;exitDy=0;" edge="1" parent="1" source="CCLTXfH-N6ZrhghRH6qy-90" target="CCLTXfH-N6ZrhghRH6qy-91">
          <mxGeometry relative="1" as="geometry">
            <Array as="points">
              <mxPoint x="1125" y="1370" />
              <mxPoint x="1125" y="1490" />
            </Array>
          </mxGeometry>
        </mxCell>
        <mxCell id="CCLTXfH-N6ZrhghRH6qy-89" value="Yes" style="edgeStyle=orthogonalEdgeStyle;rounded=0;orthogonalLoop=1;jettySize=auto;html=1;entryX=1;entryY=0.5;entryDx=0;entryDy=0;" edge="1" parent="1" source="CCLTXfH-N6ZrhghRH6qy-90" target="CCLTXfH-N6ZrhghRH6qy-83">
          <mxGeometry relative="1" as="geometry">
            <Array as="points">
              <mxPoint x="1415" y="1370" />
              <mxPoint x="1415" y="1220" />
            </Array>
          </mxGeometry>
        </mxCell>
        <mxCell id="CCLTXfH-N6ZrhghRH6qy-90" value="Iregg?" style="rhombus;whiteSpace=wrap;html=1;" vertex="1" parent="1">
          <mxGeometry x="1215" y="1330" width="80" height="80" as="geometry" />
        </mxCell>
        <mxCell id="CCLTXfH-N6ZrhghRH6qy-91" value="End" style="ellipse;whiteSpace=wrap;html=1;" vertex="1" parent="1">
          <mxGeometry x="1195" y="1450" width="120" height="80" as="geometry" />
        </mxCell>
        <mxCell id="CCLTXfH-N6ZrhghRH6qy-92" value="&lt;font style=&quot;font-size: 24px;&quot;&gt;G11&lt;/font&gt;" style="text;html=1;align=center;verticalAlign=middle;resizable=0;points=[];autosize=1;strokeColor=none;fillColor=none;" vertex="1" parent="1">
          <mxGeometry x="1215" y="300" width="70" height="40" as="geometry" />
        </mxCell>
        <mxCell id="CCLTXfH-N6ZrhghRH6qy-93" value="" style="edgeStyle=orthogonalEdgeStyle;rounded=0;orthogonalLoop=1;jettySize=auto;html=1;" edge="1" parent="1" source="CCLTXfH-N6ZrhghRH6qy-94" target="CCLTXfH-N6ZrhghRH6qy-97">
          <mxGeometry relative="1" as="geometry" />
        </mxCell>
        <mxCell id="CCLTXfH-N6ZrhghRH6qy-94" value="Start" style="ellipse;whiteSpace=wrap;html=1;" vertex="1" parent="1">
          <mxGeometry x="2010" y="360" width="120" height="80" as="geometry" />
        </mxCell>
        <mxCell id="CCLTXfH-N6ZrhghRH6qy-95" value="no" style="edgeStyle=orthogonalEdgeStyle;rounded=0;orthogonalLoop=1;jettySize=auto;html=1;" edge="1" parent="1" source="CCLTXfH-N6ZrhghRH6qy-97" target="CCLTXfH-N6ZrhghRH6qy-99">
          <mxGeometry relative="1" as="geometry" />
        </mxCell>
        <mxCell id="CCLTXfH-N6ZrhghRH6qy-96" value="yes" style="edgeStyle=orthogonalEdgeStyle;rounded=0;orthogonalLoop=1;jettySize=auto;html=1;" edge="1" parent="1" source="CCLTXfH-N6ZrhghRH6qy-97" target="CCLTXfH-N6ZrhghRH6qy-101">
          <mxGeometry relative="1" as="geometry" />
        </mxCell>
        <mxCell id="CCLTXfH-N6ZrhghRH6qy-97" value="Has account?" style="rhombus;whiteSpace=wrap;html=1;" vertex="1" parent="1">
          <mxGeometry x="2030" y="520" width="80" height="80" as="geometry" />
        </mxCell>
        <mxCell id="CCLTXfH-N6ZrhghRH6qy-98" value="" style="edgeStyle=orthogonalEdgeStyle;rounded=0;orthogonalLoop=1;jettySize=auto;html=1;" edge="1" parent="1" source="CCLTXfH-N6ZrhghRH6qy-99" target="CCLTXfH-N6ZrhghRH6qy-103">
          <mxGeometry relative="1" as="geometry" />
        </mxCell>
        <mxCell id="CCLTXfH-N6ZrhghRH6qy-99" value="Register Student" style="whiteSpace=wrap;html=1;" vertex="1" parent="1">
          <mxGeometry x="1800" y="530" width="120" height="60" as="geometry" />
        </mxCell>
        <mxCell id="CCLTXfH-N6ZrhghRH6qy-100" value="" style="edgeStyle=orthogonalEdgeStyle;rounded=0;orthogonalLoop=1;jettySize=auto;html=1;entryX=0.5;entryY=0;entryDx=0;entryDy=0;" edge="1" parent="1" source="CCLTXfH-N6ZrhghRH6qy-101" target="CCLTXfH-N6ZrhghRH6qy-105">
          <mxGeometry relative="1" as="geometry">
            <Array as="points">
              <mxPoint x="2380" y="560" />
              <mxPoint x="2380" y="740" />
              <mxPoint x="2070" y="740" />
            </Array>
          </mxGeometry>
        </mxCell>
        <mxCell id="CCLTXfH-N6ZrhghRH6qy-101" value="Encode Grade 11 Grades by Admin/Instructor" style="whiteSpace=wrap;html=1;" vertex="1" parent="1">
          <mxGeometry x="2210" y="530" width="120" height="60" as="geometry" />
        </mxCell>
        <mxCell id="CCLTXfH-N6ZrhghRH6qy-102" style="edgeStyle=orthogonalEdgeStyle;rounded=0;orthogonalLoop=1;jettySize=auto;html=1;entryX=0.5;entryY=1;entryDx=0;entryDy=0;" edge="1" parent="1" source="CCLTXfH-N6ZrhghRH6qy-103" target="CCLTXfH-N6ZrhghRH6qy-101">
          <mxGeometry relative="1" as="geometry" />
        </mxCell>
        <mxCell id="CCLTXfH-N6ZrhghRH6qy-103" value="Approve Account by Admin/Instructor" style="whiteSpace=wrap;html=1;" vertex="1" parent="1">
          <mxGeometry x="1800" y="670" width="120" height="60" as="geometry" />
        </mxCell>
        <mxCell id="CCLTXfH-N6ZrhghRH6qy-104" value="" style="edgeStyle=orthogonalEdgeStyle;rounded=0;orthogonalLoop=1;jettySize=auto;html=1;" edge="1" parent="1" source="CCLTXfH-N6ZrhghRH6qy-105" target="CCLTXfH-N6ZrhghRH6qy-112">
          <mxGeometry relative="1" as="geometry" />
        </mxCell>
        <mxCell id="CCLTXfH-N6ZrhghRH6qy-105" value="Verify Student Grades" style="whiteSpace=wrap;html=1;" vertex="1" parent="1">
          <mxGeometry x="2010" y="780" width="120" height="60" as="geometry" />
        </mxCell>
        <mxCell id="CCLTXfH-N6ZrhghRH6qy-106" value="" style="edgeStyle=orthogonalEdgeStyle;rounded=0;orthogonalLoop=1;jettySize=auto;html=1;" edge="1" parent="1" source="CCLTXfH-N6ZrhghRH6qy-107" target="CCLTXfH-N6ZrhghRH6qy-109">
          <mxGeometry relative="1" as="geometry" />
        </mxCell>
        <mxCell id="CCLTXfH-N6ZrhghRH6qy-107" value="Enroll Student" style="whiteSpace=wrap;html=1;" vertex="1" parent="1">
          <mxGeometry x="2010" y="1070" width="120" height="60" as="geometry" />
        </mxCell>
        <mxCell id="CCLTXfH-N6ZrhghRH6qy-108" style="edgeStyle=orthogonalEdgeStyle;rounded=0;orthogonalLoop=1;jettySize=auto;html=1;entryX=0.5;entryY=0;entryDx=0;entryDy=0;" edge="1" parent="1" source="CCLTXfH-N6ZrhghRH6qy-109" target="CCLTXfH-N6ZrhghRH6qy-116">
          <mxGeometry relative="1" as="geometry" />
        </mxCell>
        <mxCell id="CCLTXfH-N6ZrhghRH6qy-109" value="Select Year/Section/Schedule by Admin/Instructor" style="whiteSpace=wrap;html=1;" vertex="1" parent="1">
          <mxGeometry x="2010" y="1190" width="120" height="60" as="geometry" />
        </mxCell>
        <mxCell id="CCLTXfH-N6ZrhghRH6qy-110" value="no" style="edgeStyle=orthogonalEdgeStyle;rounded=0;orthogonalLoop=1;jettySize=auto;html=1;" edge="1" parent="1" source="CCLTXfH-N6ZrhghRH6qy-112" target="CCLTXfH-N6ZrhghRH6qy-113">
          <mxGeometry relative="1" as="geometry" />
        </mxCell>
        <mxCell id="CCLTXfH-N6ZrhghRH6qy-111" value="yes" style="edgeStyle=orthogonalEdgeStyle;rounded=0;orthogonalLoop=1;jettySize=auto;html=1;entryX=0.5;entryY=0;entryDx=0;entryDy=0;" edge="1" parent="1" source="CCLTXfH-N6ZrhghRH6qy-112" target="CCLTXfH-N6ZrhghRH6qy-107">
          <mxGeometry relative="1" as="geometry">
            <mxPoint x="2070" y="1090" as="targetPoint" />
          </mxGeometry>
        </mxCell>
        <mxCell id="CCLTXfH-N6ZrhghRH6qy-112" value="Qualified for G12?" style="rhombus;whiteSpace=wrap;html=1;" vertex="1" parent="1">
          <mxGeometry x="2030" y="910" width="80" height="80" as="geometry" />
        </mxCell>
        <mxCell id="CCLTXfH-N6ZrhghRH6qy-113" value="For Next Sem" style="whiteSpace=wrap;html=1;" vertex="1" parent="1">
          <mxGeometry x="1800" y="920" width="120" height="60" as="geometry" />
        </mxCell>
        <mxCell id="CCLTXfH-N6ZrhghRH6qy-114" value="no" style="edgeStyle=orthogonalEdgeStyle;rounded=0;orthogonalLoop=1;jettySize=auto;html=1;entryX=0;entryY=0.5;entryDx=0;entryDy=0;exitX=0;exitY=0.5;exitDx=0;exitDy=0;" edge="1" parent="1" source="CCLTXfH-N6ZrhghRH6qy-116" target="CCLTXfH-N6ZrhghRH6qy-117">
          <mxGeometry relative="1" as="geometry">
            <Array as="points">
              <mxPoint x="1940" y="1370" />
              <mxPoint x="1940" y="1490" />
            </Array>
          </mxGeometry>
        </mxCell>
        <mxCell id="CCLTXfH-N6ZrhghRH6qy-115" value="Yes" style="edgeStyle=orthogonalEdgeStyle;rounded=0;orthogonalLoop=1;jettySize=auto;html=1;entryX=1;entryY=0.5;entryDx=0;entryDy=0;" edge="1" parent="1" source="CCLTXfH-N6ZrhghRH6qy-116" target="CCLTXfH-N6ZrhghRH6qy-109">
          <mxGeometry relative="1" as="geometry">
            <Array as="points">
              <mxPoint x="2230" y="1370" />
              <mxPoint x="2230" y="1220" />
            </Array>
          </mxGeometry>
        </mxCell>
        <mxCell id="CCLTXfH-N6ZrhghRH6qy-116" value="Iregg?" style="rhombus;whiteSpace=wrap;html=1;" vertex="1" parent="1">
          <mxGeometry x="2030" y="1330" width="80" height="80" as="geometry" />
        </mxCell>
        <mxCell id="CCLTXfH-N6ZrhghRH6qy-117" value="End" style="ellipse;whiteSpace=wrap;html=1;" vertex="1" parent="1">
          <mxGeometry x="2010" y="1450" width="120" height="80" as="geometry" />
        </mxCell>
        <mxCell id="CCLTXfH-N6ZrhghRH6qy-118" value="&lt;font style=&quot;font-size: 24px;&quot;&gt;G12&lt;/font&gt;" style="text;html=1;align=center;verticalAlign=middle;resizable=0;points=[];autosize=1;strokeColor=none;fillColor=none;" vertex="1" parent="1">
          <mxGeometry x="2030" y="300" width="70" height="40" as="geometry" />
        </mxCell>
        <mxCell id="CCLTXfH-N6ZrhghRH6qy-119" value="" style="edgeStyle=orthogonalEdgeStyle;rounded=0;orthogonalLoop=1;jettySize=auto;html=1;entryX=0.5;entryY=0;entryDx=0;entryDy=0;" edge="1" parent="1" source="CCLTXfH-N6ZrhghRH6qy-120" target="CCLTXfH-N6ZrhghRH6qy-127">
          <mxGeometry relative="1" as="geometry">
            <mxPoint x="2820" y="520" as="targetPoint" />
          </mxGeometry>
        </mxCell>
        <mxCell id="CCLTXfH-N6ZrhghRH6qy-120" value="Start" style="ellipse;whiteSpace=wrap;html=1;" vertex="1" parent="1">
          <mxGeometry x="2760" y="360" width="120" height="80" as="geometry" />
        </mxCell>
        <mxCell id="CCLTXfH-N6ZrhghRH6qy-147" value="" style="edgeStyle=orthogonalEdgeStyle;rounded=0;orthogonalLoop=1;jettySize=auto;html=1;" edge="1" parent="1" source="CCLTXfH-N6ZrhghRH6qy-127" target="CCLTXfH-N6ZrhghRH6qy-131">
          <mxGeometry relative="1" as="geometry" />
        </mxCell>
        <mxCell id="CCLTXfH-N6ZrhghRH6qy-127" value="Encode Grade 12 Grades by Admin/Instructor" style="whiteSpace=wrap;html=1;" vertex="1" parent="1">
          <mxGeometry x="2760" y="535" width="120" height="60" as="geometry" />
        </mxCell>
        <mxCell id="CCLTXfH-N6ZrhghRH6qy-130" value="" style="edgeStyle=orthogonalEdgeStyle;rounded=0;orthogonalLoop=1;jettySize=auto;html=1;" edge="1" parent="1" source="CCLTXfH-N6ZrhghRH6qy-131" target="CCLTXfH-N6ZrhghRH6qy-138">
          <mxGeometry relative="1" as="geometry" />
        </mxCell>
        <mxCell id="CCLTXfH-N6ZrhghRH6qy-131" value="Verify Student Grades" style="whiteSpace=wrap;html=1;" vertex="1" parent="1">
          <mxGeometry x="2760" y="655" width="120" height="60" as="geometry" />
        </mxCell>
        <mxCell id="CCLTXfH-N6ZrhghRH6qy-132" value="" style="edgeStyle=orthogonalEdgeStyle;rounded=0;orthogonalLoop=1;jettySize=auto;html=1;entryX=0.5;entryY=0;entryDx=0;entryDy=0;" edge="1" parent="1" source="CCLTXfH-N6ZrhghRH6qy-133" target="CCLTXfH-N6ZrhghRH6qy-143">
          <mxGeometry relative="1" as="geometry">
            <mxPoint x="2820" y="1065" as="targetPoint" />
          </mxGeometry>
        </mxCell>
        <mxCell id="CCLTXfH-N6ZrhghRH6qy-133" value="Waiting List" style="whiteSpace=wrap;html=1;" vertex="1" parent="1">
          <mxGeometry x="2760" y="945" width="120" height="60" as="geometry" />
        </mxCell>
        <mxCell id="CCLTXfH-N6ZrhghRH6qy-134" style="edgeStyle=orthogonalEdgeStyle;rounded=0;orthogonalLoop=1;jettySize=auto;html=1;entryX=0.5;entryY=0;entryDx=0;entryDy=0;" edge="1" parent="1" source="CCLTXfH-N6ZrhghRH6qy-135">
          <mxGeometry relative="1" as="geometry">
            <mxPoint x="2920" y="2235" as="targetPoint" />
          </mxGeometry>
        </mxCell>
        <mxCell id="CCLTXfH-N6ZrhghRH6qy-136" value="no" style="edgeStyle=orthogonalEdgeStyle;rounded=0;orthogonalLoop=1;jettySize=auto;html=1;" edge="1" parent="1" source="CCLTXfH-N6ZrhghRH6qy-138" target="CCLTXfH-N6ZrhghRH6qy-139">
          <mxGeometry relative="1" as="geometry" />
        </mxCell>
        <mxCell id="CCLTXfH-N6ZrhghRH6qy-137" value="yes" style="edgeStyle=orthogonalEdgeStyle;rounded=0;orthogonalLoop=1;jettySize=auto;html=1;entryX=0.5;entryY=0;entryDx=0;entryDy=0;" edge="1" parent="1" source="CCLTXfH-N6ZrhghRH6qy-138" target="CCLTXfH-N6ZrhghRH6qy-133">
          <mxGeometry relative="1" as="geometry">
            <mxPoint x="2820" y="965" as="targetPoint" />
          </mxGeometry>
        </mxCell>
        <mxCell id="CCLTXfH-N6ZrhghRH6qy-138" value="Qualified to Graduate?" style="rhombus;whiteSpace=wrap;html=1;" vertex="1" parent="1">
          <mxGeometry x="2780" y="785" width="80" height="80" as="geometry" />
        </mxCell>
        <mxCell id="CCLTXfH-N6ZrhghRH6qy-139" value="For Next Sem" style="whiteSpace=wrap;html=1;" vertex="1" parent="1">
          <mxGeometry x="2550" y="795" width="120" height="60" as="geometry" />
        </mxCell>
        <mxCell id="CCLTXfH-N6ZrhghRH6qy-143" value="End" style="ellipse;whiteSpace=wrap;html=1;" vertex="1" parent="1">
          <mxGeometry x="2760" y="1090" width="120" height="80" as="geometry" />
        </mxCell>
        <mxCell id="CCLTXfH-N6ZrhghRH6qy-144" value="&lt;font style=&quot;font-size: 24px;&quot;&gt;Graduating&lt;/font&gt;" style="text;html=1;align=center;verticalAlign=middle;resizable=0;points=[];autosize=1;strokeColor=none;fillColor=none;" vertex="1" parent="1">
          <mxGeometry x="2745" y="300" width="140" height="40" as="geometry" />
        </mxCell>
      </root>
    </mxGraphModel>
  </diagram>
</mxfile>
